<?xml version="1.0" encoding="UTF-8"?>
<svg width="120" height="120" viewBox="0 0 120 120" fill="none" xmlns="http://www.w3.org/2000/svg">
  <circle cx="60" cy="60" r="50" fill="#FFFFFF" opacity="0.2"/>
  <path d="M60 20C37.91 20 20 37.91 20 60C20 82.09 37.91 100 60 100C82.09 100 100 82.09 100 60C100 37.91 82.09 20 60 20ZM60 90C43.43 90 30 76.57 30 60C30 43.43 43.43 30 60 30C76.57 30 90 43.43 90 60C90 76.57 76.57 90 60 90Z" fill="#FFFFFF"/>
  <path d="M78 55H65V42C65 40.34 63.66 39 62 39H58C56.34 39 55 40.34 55 42V55H42C40.34 55 39 56.34 39 58V62C39 63.66 40.34 65 42 65H55V78C55 79.66 56.34 81 58 81H62C63.66 81 65 79.66 65 78V65H78C79.66 65 81 63.66 81 62V58C81 56.34 79.66 55 78 55Z" fill="#FFFFFF"/>
</svg> 